name Walk3.mot
datacolumns 19
datarows 27
range 2.96600000 2.99200000
endheader

                time	   L_ground_force_vx	   L_ground_force_vy	   L_ground_force_vz	   L_ground_force_px	   L_ground_force_py	   L_ground_force_pz	   R_ground_force_vx	   R_ground_force_vy	   R_ground_force_vz	   R_ground_force_px	   R_ground_force_py	   R_ground_force_pz	   L_ground_torque_x	   L_ground_torque_y	   L_ground_torque_z	   R_ground_torque_x	   R_ground_torque_y	   R_ground_torque_z	
          2.96600000	         -0.00008210	         -0.00046723	         -0.00004322	          0.00000530	          0.00000000	          0.00000080	         22.23460157	        919.13881253	        -49.50089321	          0.26644114	          0.00000000	          0.11634007	          0.00000000	         -0.00000621	          0.00000000	          0.00000000	          0.57500208	          0.00000000	
          2.96700000	         -0.00005170	         -0.00036239	         -0.00003814	          0.00000497	          0.00000000	          0.00000075	         22.65261891	        919.95306854	        -49.57771645	          0.26660217	          0.00000000	          0.11635251	          0.00000000	         -0.00000595	          0.00000000	          0.00000000	          0.53107522	          0.00000000	
          2.96800000	         -0.00002369	         -0.00026509	         -0.00003335	          0.00000464	          0.00000000	          0.00000071	         23.06853056	        920.77616723	        -49.65728990	          0.26676822	          0.00000000	          0.11636599	          0.00000000	         -0.00000569	          0.00000000	          0.00000000	          0.48734902	          0.00000000	
          2.96900000	          0.00000203	         -0.00017507	         -0.00002884	          0.00000433	          0.00000000	          0.00000067	         23.48204922	        921.60743673	        -49.73946798	          0.26693946	          0.00000000	          0.11638055	          0.00000000	         -0.00000543	          0.00000000	          0.00000000	          0.44385413	          0.00000000	
          2.97000000	          0.00002555	         -0.00009204	         -0.00002461	          0.00000402	          0.00000000	          0.00000063	         23.89288654	        922.44622756	        -49.82410617	          0.26711607	          0.00000000	          0.11639619	          0.00000000	         -0.00000517	          0.00000000	          0.00000000	          0.40062212	          0.00000000	
          2.97100000	          0.00004698	         -0.00001572	         -0.00002064	          0.00000373	          0.00000000	          0.00000059	         24.30075434	        923.29191242	        -49.91106170	          0.26729824	          0.00000000	          0.11641296	          0.00000000	         -0.00000491	          0.00000000	          0.00000000	          0.35768538	          0.00000000	
          2.97200000	          0.00006641	          0.00005417	         -0.00001693	          0.00000345	          0.00000000	          0.00000055	         24.70536591	        924.14388621	        -50.00019368	          0.26748614	          0.00000000	          0.11643086	          0.00000000	         -0.00000465	          0.00000000	          0.00000000	          0.31507687	          0.00000000	
          2.97300000	          0.00008393	          0.00011791	         -0.00001347	          0.00000317	          0.00000000	          0.00000051	         25.10643762	        925.00156674	        -50.09136300	          0.26767996	          0.00000000	          0.11644992	          0.00000000	         -0.00000440	          0.00000000	          0.00000000	          0.27283002	          0.00000000	
          2.97400000	          0.00009965	          0.00017579	         -0.00001026	          0.00000291	          0.00000000	          0.00000047	         25.50369038	        925.86439576	        -50.18443184	          0.26787986	          0.00000000	          0.11647017	          0.00000000	         -0.00000416	          0.00000000	          0.00000000	          0.23097830	          0.00000000	
          2.97500000	          0.00011365	          0.00022808	         -0.00000728	          0.00000266	          0.00000000	          0.00000044	         25.89685118	        926.73184006	        -50.27926315	          0.26808602	          0.00000000	          0.11649163	          0.00000000	         -0.00000392	          0.00000000	          0.00000000	          0.18955486	          0.00000000	
          2.97600000	          0.00012604	          0.00027506	         -0.00000452	          0.00000242	          0.00000000	          0.00000041	         26.28565433	        927.60339207	        -50.37572015	          0.26829862	          0.00000000	          0.11651431	          0.00000000	         -0.00000368	          0.00000000	          0.00000000	          0.14859193	          0.00000000	
          2.97700000	          0.00013689	          0.00031701	         -0.00000199	          0.00000220	          0.00000000	          0.00000037	         26.66984251	        928.47857008	        -50.47366612	          0.26851781	          0.00000000	          0.11653825	          0.00000000	         -0.00000345	          0.00000000	          0.00000000	          0.10812043	          0.00000000	
          2.97800000	          0.00014630	          0.00035420	          0.00000034	          0.00000198	          0.00000000	          0.00000034	         27.04916768	        929.35691823	        -50.57296464	          0.26874377	          0.00000000	          0.11656347	          0.00000000	         -0.00000323	          0.00000000	          0.00000000	          0.06816961	          0.00000000	
          2.97900000	          0.00015437	          0.00038688	          0.00000247	          0.00000178	          0.00000000	          0.00000031	         27.42339178	        930.23800631	        -50.67348029	          0.26897663	          0.00000000	          0.11658999	          0.00000000	         -0.00000302	          0.00000000	          0.00000000	          0.02876688	          0.00000000	
          2.98000000	          0.00016116	          0.00041533	          0.00000441	          0.00000158	          0.00000000	          0.00000028	         27.79228723	        931.12142931	        -50.77507956	          0.26921655	          0.00000000	          0.11661783	          0.00000000	         -0.00000281	          0.00000000	          0.00000000	         -0.01006216	          0.00000000	
          2.98100000	          0.00016677	          0.00043978	          0.00000617	          0.00000140	          0.00000000	          0.00000026	         28.15563712	        932.00680665	        -50.87763186	          0.26946366	          0.00000000	          0.11664702	          0.00000000	         -0.00000261	          0.00000000	          0.00000000	         -0.04829361	          0.00000000	
          2.98200000	          0.00017126	          0.00046050	          0.00000775	          0.00000122	          0.00000000	          0.00000023	         28.51323513	        932.89378101	        -50.98101011	          0.26971810	          0.00000000	          0.11667757	          0.00000000	         -0.00000241	          0.00000000	          0.00000000	         -0.08590516	          0.00000000	
          2.98300000	          0.00017473	          0.00047771	          0.00000917	          0.00000106	          0.00000000	          0.00000021	         28.86488499	        933.78201690	        -51.08509116	          0.26997999	          0.00000000	          0.11670949	          0.00000000	         -0.00000223	          0.00000000	          0.00000000	         -0.12287603	          0.00000000	
          2.98400000	          0.00017725	          0.00049166	          0.00001044	          0.00000091	          0.00000000	          0.00000018	         29.21039963	        934.67119934	        -51.18975572	          0.27024945	          0.00000000	          0.11674281	          0.00000000	         -0.00000205	          0.00000000	          0.00000000	         -0.15918699	          0.00000000	
          2.98500000	          0.00017888	          0.00050256	          0.00001156	          0.00000076	          0.00000000	          0.00000016	         29.54960021	        935.56103302	        -51.29488811	          0.27052658	          0.00000000	          0.11677754	          0.00000000	         -0.00000187	          0.00000000	          0.00000000	         -0.19482059	          0.00000000	
          2.98600000	          0.00017970	          0.00051063	          0.00001254	          0.00000063	          0.00000000	          0.00000014	         29.88231515	        936.45124207	        -51.40037600	          0.27081149	          0.00000000	          0.11681368	          0.00000000	         -0.00000171	          0.00000000	          0.00000000	         -0.22976131	          0.00000000	
          2.98700000	          0.00017976	          0.00051609	          0.00001339	          0.00000050	          0.00000000	          0.00000012	         30.20837967	        937.34157042	        -51.50611049	          0.27110427	          0.00000000	          0.11685125	          0.00000000	         -0.00000155	          0.00000000	          0.00000000	         -0.26399566	          0.00000000	
          2.98800000	          0.00017915	          0.00051914	          0.00001411	          0.00000039	          0.00000000	          0.00000010	         30.52763589	        938.23178210	        -51.61198660	          0.27140502	          0.00000000	          0.11689025	          0.00000000	         -0.00000140	          0.00000000	          0.00000000	         -0.29751207	          0.00000000	
          2.98900000	          0.00017790	          0.00051996	          0.00001472	          0.00000028	          0.00000000	          0.00000009	         30.83993353	        939.12166062	        -51.71790420	          0.27171382	          0.00000000	          0.11693069	          0.00000000	         -0.00000126	          0.00000000	          0.00000000	         -0.33030045	          0.00000000	
          2.99000000	          0.00017610	          0.00051875	          0.00001523	          0.00000018	          0.00000000	          0.00000007	         31.14513089	        940.01100685	        -51.82376897	          0.27203075	          0.00000000	          0.11697256	          0.00000000	         -0.00000113	          0.00000000	          0.00000000	         -0.36235167	          0.00000000	
          2.99100000	          0.00017378	          0.00051568	          0.00001563	          0.00000008	          0.00000000	          0.00000006	         31.44309570	        940.89963525	        -51.92949329	          0.27235590	          0.00000000	          0.11701588	          0.00000000	         -0.00000100	          0.00000000	          0.00000000	         -0.39365697	          0.00000000	
          2.99200000	          0.00017100	          0.00051093	          0.00001594	         -0.00000000	          0.00000000	          0.00000004	         31.73370582	        941.78736943	        -52.03499665	          0.27268932	          0.00000000	          0.11706064	          0.00000000	         -0.00000088	          0.00000000	          0.00000000	         -0.42420754	          0.00000000	
